<svg xmlns="http://www.w3.org/2000/svg" xmlns:xlink="http://www.w3.org/1999/xlink" width="500" zoomAndPan="magnify" viewBox="0 0 375 374.999991" height="500" preserveAspectRatio="xMidYMid meet" version="1.0"><defs><g/><clipPath id="9880c4d90c"><path d="M 147 82.21875 L 228 82.21875 L 228 164 L 147 164 Z M 147 82.21875 " clip-rule="nonzero"/></clipPath><clipPath id="fc5ea869e5"><path d="M 147 152 L 228 152 L 228 226.96875 L 147 226.96875 Z M 147 152 " clip-rule="nonzero"/></clipPath></defs><rect x="-37.5" width="450" fill="#ffffff" y="-37.499999" height="449.999989" fill-opacity="1"/><rect x="-37.5" width="450" fill="#f9f9f9" y="-37.499999" height="449.999989" fill-opacity="1"/><g clip-path="url(#9880c4d90c)"><path fill="#000000" d="M 210.625 134.445312 L 210.625 122.800781 C 210.625 110.050781 200.261719 99.683594 187.519531 99.683594 C 174.78125 99.683594 164.414062 110.054688 164.414062 122.804688 C 164.414062 135.554688 174.78125 145.925781 187.515625 145.925781 L 228.007812 145.925781 L 228.007812 163.234375 L 187.519531 163.234375 C 182.0625 163.234375 176.765625 162.1875 171.769531 160.074219 C 166.953125 158.035156 162.625 155.144531 158.914062 151.429688 C 155.203125 147.710938 152.285156 143.382812 150.246094 138.5625 C 148.136719 133.566406 147.066406 128.261719 147.066406 122.800781 C 147.066406 117.335938 148.136719 112.035156 150.246094 107.039062 C 152.285156 102.21875 155.203125 97.886719 158.914062 94.171875 C 162.628906 90.457031 166.953125 87.539062 171.769531 85.5 C 176.765625 83.382812 182.0625 82.3125 187.519531 82.3125 C 192.976562 82.3125 198.28125 83.382812 203.269531 85.5 C 208.089844 87.539062 212.417969 90.457031 216.132812 94.167969 C 219.847656 97.886719 222.769531 102.214844 224.808594 107.035156 C 226.917969 112.035156 228.007812 117.335938 228.007812 122.796875 L 228.007812 134.441406 L 210.625 134.441406 Z M 210.625 134.445312 " fill-opacity="1" fill-rule="nonzero"/></g><g clip-path="url(#fc5ea869e5)"><path fill="#000000" d="M 228.007812 174.804688 L 228.007812 186.40625 C 228.007812 188.34375 227.855469 190.265625 227.585938 192.160156 C 227.097656 195.597656 226.152344 198.945312 224.789062 202.167969 C 222.75 206.988281 219.835938 211.320312 216.121094 215.035156 C 212.40625 218.75 208.082031 221.667969 203.261719 223.707031 C 198.265625 225.820312 192.96875 226.890625 187.511719 226.890625 C 182.054688 226.890625 176.75 225.820312 171.757812 223.707031 C 166.941406 221.664062 162.605469 218.746094 158.890625 215.035156 C 155.179688 211.316406 152.246094 206.988281 150.207031 202.167969 C 148.101562 197.167969 147 191.867188 147 186.402344 L 147 152.582031 C 148.5 154.609375 150.175781 156.53125 151.976562 158.335938 C 156.585938 162.945312 161.984375 166.5625 167.96875 169.097656 C 168.964844 169.519531 169.976562 169.90625 170.996094 170.261719 C 166.929688 174.429688 164.417969 180.121094 164.417969 186.398438 C 164.417969 199.144531 174.785156 209.507812 187.519531 209.507812 C 198.277344 209.507812 207.335938 202.089844 209.898438 192.109375 L 187.503906 192.109375 L 187.503906 174.800781 L 228.007812 174.800781 Z M 228.007812 174.804688 " fill-opacity="1" fill-rule="nonzero"/></g><g fill="#2f3335" fill-opacity="1"><g transform="translate(87.024944, 267.386351)"><g><path d="M 9.140625 0.296875 C 7.171875 0.296875 5.4375 -0.1875 3.9375 -1.15625 C 2.4375 -2.132812 1.320312 -3.320312 0.59375 -4.71875 L 4.6875 -7.265625 C 5.101562 -6.390625 5.695312 -5.679688 6.46875 -5.140625 C 7.25 -4.609375 8.148438 -4.34375 9.171875 -4.34375 C 10.046875 -4.34375 10.726562 -4.53125 11.21875 -4.90625 C 11.707031 -5.28125 11.953125 -5.78125 11.953125 -6.40625 C 11.953125 -7.050781 11.703125 -7.570312 11.203125 -7.96875 C 10.703125 -8.375 10.054688 -8.710938 9.265625 -8.984375 C 8.484375 -9.265625 7.648438 -9.5625 6.765625 -9.875 C 5.878906 -10.1875 5.039062 -10.59375 4.25 -11.09375 C 3.46875 -11.59375 2.828125 -12.238281 2.328125 -13.03125 C 1.828125 -13.832031 1.578125 -14.867188 1.578125 -16.140625 C 1.578125 -17.640625 1.925781 -18.875 2.625 -19.84375 C 3.320312 -20.820312 4.222656 -21.554688 5.328125 -22.046875 C 6.441406 -22.535156 7.585938 -22.78125 8.765625 -22.78125 C 10.160156 -22.78125 11.457031 -22.484375 12.65625 -21.890625 C 13.851562 -21.304688 14.867188 -20.539062 15.703125 -19.59375 L 12.40625 -16.453125 C 11.851562 -17.066406 11.265625 -17.539062 10.640625 -17.875 C 10.015625 -18.21875 9.378906 -18.390625 8.734375 -18.390625 C 8.128906 -18.390625 7.613281 -18.238281 7.1875 -17.9375 C 6.769531 -17.644531 6.5625 -17.171875 6.5625 -16.515625 C 6.5625 -15.867188 6.804688 -15.359375 7.296875 -14.984375 C 7.796875 -14.609375 8.441406 -14.28125 9.234375 -14 C 10.023438 -13.726562 10.851562 -13.429688 11.71875 -13.109375 C 12.59375 -12.785156 13.421875 -12.359375 14.203125 -11.828125 C 14.992188 -11.304688 15.640625 -10.613281 16.140625 -9.75 C 16.640625 -8.894531 16.890625 -7.769531 16.890625 -6.375 C 16.890625 -4.96875 16.535156 -3.765625 15.828125 -2.765625 C 15.117188 -1.773438 14.175781 -1.015625 13 -0.484375 C 11.820312 0.0351562 10.535156 0.296875 9.140625 0.296875 Z M 9.140625 0.296875 "/></g></g></g><g fill="#2f3335" fill-opacity="1"><g transform="translate(110.979756, 267.386351)"><g><path d="M 2.390625 0 L 2.390625 -22.484375 L 7.34375 -22.484375 L 7.34375 0 Z M 2.390625 0 "/></g></g></g><g fill="#2f3335" fill-opacity="1"><g transform="translate(126.882452, 267.386351)"><g><path d="M 2.203125 0 L 2.203125 -22.484375 L 9.625 -22.484375 C 11.175781 -22.484375 12.628906 -22.1875 13.984375 -21.59375 C 15.347656 -21.007812 16.539062 -20.203125 17.5625 -19.171875 C 18.59375 -18.148438 19.398438 -16.957031 19.984375 -15.59375 C 20.566406 -14.238281 20.859375 -12.785156 20.859375 -11.234375 C 20.859375 -9.691406 20.566406 -8.238281 19.984375 -6.875 C 19.398438 -5.507812 18.59375 -4.316406 17.5625 -3.296875 C 16.539062 -2.273438 15.347656 -1.46875 13.984375 -0.875 C 12.628906 -0.289062 11.175781 0 9.625 0 Z M 7.15625 -4.390625 L 9.59375 -4.390625 C 10.789062 -4.390625 11.863281 -4.6875 12.8125 -5.28125 C 13.757812 -5.882812 14.515625 -6.703125 15.078125 -7.734375 C 15.640625 -8.773438 15.921875 -9.941406 15.921875 -11.234375 C 15.921875 -12.535156 15.640625 -13.703125 15.078125 -14.734375 C 14.515625 -15.773438 13.757812 -16.59375 12.8125 -17.1875 C 11.863281 -17.789062 10.789062 -18.09375 9.59375 -18.09375 L 7.15625 -18.09375 Z M 7.15625 -4.390625 "/></g></g></g><g fill="#2f3335" fill-opacity="1"><g transform="translate(155.331455, 267.386351)"><g><path d="M 2.203125 0 L 2.203125 -22.484375 L 9.625 -22.484375 C 11.175781 -22.484375 12.628906 -22.1875 13.984375 -21.59375 C 15.347656 -21.007812 16.539062 -20.203125 17.5625 -19.171875 C 18.59375 -18.148438 19.398438 -16.957031 19.984375 -15.59375 C 20.566406 -14.238281 20.859375 -12.785156 20.859375 -11.234375 C 20.859375 -9.691406 20.566406 -8.238281 19.984375 -6.875 C 19.398438 -5.507812 18.59375 -4.316406 17.5625 -3.296875 C 16.539062 -2.273438 15.347656 -1.46875 13.984375 -0.875 C 12.628906 -0.289062 11.175781 0 9.625 0 Z M 7.15625 -4.390625 L 9.59375 -4.390625 C 10.789062 -4.390625 11.863281 -4.6875 12.8125 -5.28125 C 13.757812 -5.882812 14.515625 -6.703125 15.078125 -7.734375 C 15.640625 -8.773438 15.921875 -9.941406 15.921875 -11.234375 C 15.921875 -12.535156 15.640625 -13.703125 15.078125 -14.734375 C 14.515625 -15.773438 13.757812 -16.59375 12.8125 -17.1875 C 11.863281 -17.789062 10.789062 -18.09375 9.59375 -18.09375 L 7.15625 -18.09375 Z M 7.15625 -4.390625 "/></g></g></g><g fill="#2f3335" fill-opacity="1"><g transform="translate(183.780453, 267.386351)"><g><path d="M 16.296875 -22.484375 L 21.203125 -22.484375 L 21.203125 0 L 16.296875 0 L 16.296875 -9.0625 L 7.15625 -9.0625 L 7.15625 0 L 2.203125 0 L 2.203125 -22.484375 L 7.15625 -22.484375 L 7.15625 -13.453125 L 16.296875 -13.453125 Z M 16.296875 -22.484375 "/></g></g></g><g fill="#2f3335" fill-opacity="1"><g transform="translate(213.427912, 267.386351)"><g><path d="M 15.953125 0 L 14.578125 -4.234375 L 6.1875 -4.234375 L 4.796875 0 L -0.484375 0 L 7.609375 -22.484375 L 13.15625 -22.484375 L 21.234375 0 Z M 7.5 -8.359375 L 13.265625 -8.359375 L 10.375 -17.265625 Z M 7.5 -8.359375 "/></g></g></g><g fill="#2f3335" fill-opacity="1"><g transform="translate(240.378848, 267.386351)"><g><path d="M 18.359375 -22.484375 L 23.265625 -22.484375 L 23.265625 0 L 18.171875 0 L 7.15625 -14.90625 L 7.15625 0 L 2.203125 0 L 2.203125 -22.484375 L 7.3125 -22.484375 L 18.359375 -7.609375 Z M 18.359375 -22.484375 "/></g></g></g><g fill="#2f3335" fill-opacity="1"><g transform="translate(272.08615, 267.386351)"><g><path d="M 16.078125 -22.484375 L 16.078125 -18.09375 L 10.421875 -18.09375 L 10.421875 0 L 5.5 0 L 5.5 -18.09375 L -0.1875 -18.09375 L -0.1875 -22.484375 Z M 16.078125 -22.484375 "/></g></g></g><g fill="#2f3335" fill-opacity="1"><g transform="translate(129.139469, 287.76141)"><g><path d="M 7.265625 -6.921875 L 13.765625 -6.921875 L 13.765625 -6.3125 C 13.765625 -5.414062 13.597656 -4.578125 13.265625 -3.796875 C 12.929688 -3.015625 12.460938 -2.328125 11.859375 -1.734375 C 11.265625 -1.140625 10.578125 -0.671875 9.796875 -0.328125 C 9.015625 0.00390625 8.175781 0.171875 7.28125 0.171875 C 6.382812 0.171875 5.539062 0.00390625 4.75 -0.328125 C 3.96875 -0.671875 3.28125 -1.140625 2.6875 -1.734375 C 2.101562 -2.328125 1.640625 -3.015625 1.296875 -3.796875 C 0.960938 -4.578125 0.796875 -5.414062 0.796875 -6.3125 C 0.796875 -7.207031 0.960938 -8.046875 1.296875 -8.828125 C 1.640625 -9.609375 2.101562 -10.296875 2.6875 -10.890625 C 3.28125 -11.492188 3.96875 -11.960938 4.75 -12.296875 C 5.539062 -12.628906 6.382812 -12.796875 7.28125 -12.796875 C 8.53125 -12.796875 9.664062 -12.476562 10.6875 -11.84375 C 11.707031 -11.207031 12.488281 -10.367188 13.03125 -9.328125 L 10.625 -8.078125 C 10.320312 -8.679688 9.875 -9.164062 9.28125 -9.53125 C 8.695312 -9.894531 8.03125 -10.078125 7.28125 -10.078125 C 6.582031 -10.078125 5.941406 -9.910156 5.359375 -9.578125 C 4.785156 -9.253906 4.332031 -8.804688 4 -8.234375 C 3.675781 -7.671875 3.515625 -7.03125 3.515625 -6.3125 C 3.515625 -5.601562 3.675781 -4.960938 4 -4.390625 C 4.332031 -3.816406 4.785156 -3.363281 5.359375 -3.03125 C 5.941406 -2.707031 6.582031 -2.546875 7.28125 -2.546875 C 8.070312 -2.546875 8.769531 -2.75 9.375 -3.15625 C 9.988281 -3.5625 10.441406 -4.097656 10.734375 -4.765625 L 7.265625 -4.765625 Z M 7.265625 -6.921875 "/></g></g></g><g fill="#2f3335" fill-opacity="1"><g transform="translate(153.099279, 287.76141)"><g><path d="M 6.421875 0.171875 C 5.441406 0.171875 4.550781 -0.015625 3.75 -0.390625 C 2.957031 -0.765625 2.328125 -1.269531 1.859375 -1.90625 C 1.398438 -2.539062 1.171875 -3.253906 1.171875 -4.046875 L 1.171875 -12.640625 L 3.953125 -12.640625 L 3.953125 -4.5625 C 3.953125 -3.914062 4.191406 -3.375 4.671875 -2.9375 C 5.148438 -2.507812 5.734375 -2.296875 6.421875 -2.296875 C 7.117188 -2.296875 7.707031 -2.507812 8.1875 -2.9375 C 8.664062 -3.375 8.90625 -3.914062 8.90625 -4.5625 L 8.90625 -12.640625 L 11.6875 -12.640625 L 11.6875 -4.046875 C 11.6875 -3.253906 11.453125 -2.539062 10.984375 -1.90625 C 10.523438 -1.269531 9.898438 -0.765625 9.109375 -0.390625 C 8.316406 -0.015625 7.421875 0.171875 6.421875 0.171875 Z M 6.421875 0.171875 "/></g></g></g><g fill="#2f3335" fill-opacity="1"><g transform="translate(175.353204, 287.76141)"><g><path d="M 7.828125 -5.203125 L 11.375 0 L 8.25 0 L 5.140625 -4.890625 L 4.015625 -4.890625 L 4.015625 0 L 1.25 0 L 1.25 -12.640625 L 6.609375 -12.640625 C 7.335938 -12.640625 7.984375 -12.460938 8.546875 -12.109375 C 9.109375 -11.765625 9.550781 -11.296875 9.875 -10.703125 C 10.207031 -10.117188 10.375 -9.472656 10.375 -8.765625 C 10.375 -7.898438 10.132812 -7.144531 9.65625 -6.5 C 9.1875 -5.851562 8.578125 -5.421875 7.828125 -5.203125 Z M 6.1875 -7.171875 C 6.632812 -7.171875 7.003906 -7.3125 7.296875 -7.59375 C 7.585938 -7.875 7.734375 -8.234375 7.734375 -8.671875 C 7.734375 -9.109375 7.585938 -9.46875 7.296875 -9.75 C 7.003906 -10.03125 6.632812 -10.171875 6.1875 -10.171875 L 4.015625 -10.171875 L 4.015625 -7.171875 Z M 6.1875 -7.171875 "/></g></g></g><g fill="#2f3335" fill-opacity="1"><g transform="translate(196.006558, 287.76141)"><g><path d="M 8.953125 -10.1875 L 4.125 -10.1875 L 4.125 -7.53125 L 8.25 -7.53125 L 8.25 -5.09375 L 4.125 -5.09375 L 4.125 -2.4375 L 8.953125 -2.4375 L 8.953125 0 L 1.34375 0 L 1.34375 -12.640625 L 8.953125 -12.640625 Z M 8.953125 -10.1875 "/></g></g></g><g fill="#2f3335" fill-opacity="1"><g transform="translate(215.206756, 287.76141)"><g><path d="M 8.53125 -12.640625 L 8.53125 -3.25 C 8.53125 -2.207031 8.179688 -1.375 7.484375 -0.75 C 6.785156 -0.132812 5.789062 0.171875 4.5 0.171875 C 3.351562 0.171875 2.441406 -0.0703125 1.765625 -0.5625 C 1.097656 -1.0625 0.691406 -1.738281 0.546875 -2.59375 L 3.28125 -3.390625 C 3.34375 -3.066406 3.484375 -2.800781 3.703125 -2.59375 C 3.929688 -2.382812 4.195312 -2.28125 4.5 -2.28125 C 4.851562 -2.28125 5.148438 -2.40625 5.390625 -2.65625 C 5.628906 -2.90625 5.75 -3.21875 5.75 -3.59375 L 5.75 -10.171875 L 1.59375 -10.171875 L 1.59375 -12.640625 Z M 8.53125 -12.640625 "/></g></g></g><g fill="#2f3335" fill-opacity="1"><g transform="translate(234.175291, 287.76141)"><g><path d="M 8.96875 0 L 8.1875 -2.375 L 3.46875 -2.375 L 2.6875 0 L -0.28125 0 L 4.28125 -12.640625 L 7.390625 -12.640625 L 11.9375 0 Z M 4.21875 -4.6875 L 7.453125 -4.6875 L 5.828125 -9.703125 Z M 4.21875 -4.6875 "/></g></g></g></svg>